<svg width="105" height="42" viewBox="0 0 145 58" fill="none" xmlns="http://www.w3.org/2000/svg">
<path d="M0 16.2204C0 13.0571 2.25079 10.3413 5.35916 9.7542L49.1981 1.47366C53.2504 0.708253 57 3.81595 57 7.93985V50.1076C57 54.2157 53.2774 57.3195 49.2362 56.5808L5.39726 48.5674C2.27112 47.996 0 45.2721 0 42.0942V16.2204Z" fill="#FFB61D"></path>
<path d="M69.5812 40.4013C67.9982 40.4013 66.5712 40.0557 65.3003 39.3646C64.0295 38.6734 63.015 37.6812 62.2569 36.388C61.5211 35.0725 61.1532 33.4895 61.1532 31.6389C61.1532 29.7883 61.5657 28.2164 62.3907 26.9232C63.2379 25.6077 64.3416 24.6044 65.7017 23.9132C67.0618 23.222 68.5333 22.8764 70.1164 22.8764C71.1197 22.8764 72.0227 23.0325 72.8254 23.3446C73.6503 23.6568 74.3749 24.0804 74.9992 24.6155L72.3237 28.2944C71.9669 27.9823 71.6436 27.7705 71.3538 27.659C71.0639 27.5475 70.7629 27.4918 70.4508 27.4918C69.3806 27.4918 68.5445 27.8708 67.9425 28.6289C67.3405 29.3647 67.0395 30.368 67.0395 31.6389C67.0395 32.9098 67.3516 33.9243 67.9759 34.6823C68.6002 35.4181 69.3583 35.786 70.2501 35.786C70.7184 35.786 71.1754 35.6857 71.6214 35.485C72.0896 35.262 72.5244 35.0056 72.9257 34.7158L75.133 38.4616C74.3081 39.1973 73.3939 39.7101 72.3906 40C71.3872 40.2676 70.4508 40.4013 69.5812 40.4013ZM82.9483 40.4013C81.6551 40.4013 80.6295 40.1449 79.8714 39.6321C79.1356 39.097 78.6005 38.3612 78.2661 37.4248C77.9539 36.466 77.7979 35.3624 77.7979 34.1138V16.7226H83.5503V34.3144C83.5503 34.8718 83.6507 35.262 83.8513 35.485C84.0743 35.6857 84.2861 35.786 84.4868 35.786C84.5982 35.786 84.6874 35.786 84.7543 35.786C84.8435 35.7637 84.955 35.7414 85.0888 35.7191L85.7577 39.9331C85.4678 40.0669 85.0888 40.1784 84.6205 40.2676C84.1523 40.3567 83.5949 40.4013 82.9483 40.4013ZM95.184 40.4013C93.7571 40.4013 92.4081 40.0557 91.1373 39.3646C89.8887 38.6734 88.863 37.6812 88.0604 36.388C87.28 35.0725 86.8898 33.4895 86.8898 31.6389C86.8898 29.7883 87.28 28.2164 88.0604 26.9232C88.863 25.6077 89.8887 24.6044 91.1373 23.9132C92.4081 23.222 93.7571 22.8764 95.184 22.8764C96.611 22.8764 97.9488 23.222 99.1974 23.9132C100.468 24.6044 101.494 25.6077 102.274 26.9232C103.077 28.2164 103.478 29.7883 103.478 31.6389C103.478 33.4895 103.077 35.0725 102.274 36.388C101.494 37.6812 100.468 38.6734 99.1974 39.3646C97.9488 40.0557 96.611 40.4013 95.184 40.4013ZM95.184 35.786C96.0536 35.786 96.6667 35.4181 97.0235 34.6823C97.4025 33.9243 97.592 32.9098 97.592 31.6389C97.592 30.368 97.4025 29.3647 97.0235 28.6289C96.6667 27.8708 96.0536 27.4918 95.184 27.4918C94.3145 27.4918 93.6902 27.8708 93.3111 28.6289C92.9544 29.3647 92.776 30.368 92.776 31.6389C92.776 32.9098 92.9544 33.9243 93.3111 34.6823C93.6902 35.4181 94.3145 35.786 95.184 35.786ZM111.557 40.4013C109.729 40.4013 108.403 39.7882 107.578 38.5619C106.753 37.3133 106.34 35.6522 106.34 33.5787V23.2778H112.093V32.8429C112.093 33.9131 112.226 34.6266 112.494 34.9833C112.784 35.3401 113.207 35.5184 113.765 35.5184C114.3 35.5184 114.746 35.407 115.103 35.184C115.459 34.961 115.816 34.582 116.173 34.0469V23.2778H121.925V40H117.243L116.842 37.7927H116.708C116.039 38.5953 115.292 39.2308 114.467 39.699C113.664 40.1672 112.695 40.4013 111.557 40.4013ZM131.896 40.4013C129.822 40.4013 128.161 39.621 126.913 38.0602C125.686 36.4772 125.073 34.3367 125.073 31.6389C125.073 29.8106 125.396 28.2498 126.043 26.9567C126.712 25.6412 127.57 24.6378 128.618 23.9467C129.666 23.2332 130.759 22.8764 131.896 22.8764C132.81 22.8764 133.557 23.0325 134.137 23.3446C134.739 23.6345 135.285 24.0358 135.775 24.5487L135.575 22.1406V16.7226H141.327V40H136.645L136.244 38.4616H136.11C135.552 39.019 134.895 39.4872 134.137 39.8662C133.379 40.223 132.632 40.4013 131.896 40.4013ZM133.434 35.7191C133.88 35.7191 134.27 35.6411 134.605 35.485C134.962 35.3066 135.285 34.9833 135.575 34.5151V28.3613C135.24 28.0492 134.872 27.8374 134.471 27.7259C134.07 27.6144 133.68 27.5587 133.301 27.5587C132.699 27.5587 132.152 27.8597 131.662 28.4617C131.194 29.0637 130.959 30.1004 130.959 31.572C130.959 33.0658 131.182 34.1361 131.628 34.7827C132.074 35.407 132.676 35.7191 133.434 35.7191Z" fill="black"></path>
<path d="M4.408 40V18.2611H18.4547V23.0771H10.1605V26.4884H17.2507V31.3044H10.1605V35.184H18.7891V40H4.408ZM22.9919 40V18.2611H28.7443V35.184H36.9717V40H22.9919ZM40.8565 40V23.0771H35.104V18.2611H52.3614V23.0771H46.6089V40H40.8565Z" fill="black"></path>
</svg>