<?xml version="1.0" encoding="UTF-8"?>
<svg xmlns="http://www.w3.org/2000/svg" xmlns:xlink="http://www.w3.org/1999/xlink" width="512px" height="512px" viewBox="0 0 512 512" version="1.1">
<g id="surface1">
<path style=" stroke:none;fill-rule:nonzero;fill:rgb(94.509804%,94.901961%,94.901961%);fill-opacity:1;" d="M 400.539062 288.089844 C 400.539062 304.097656 338.582031 321.699219 262.148438 321.699219 C 185.722656 321.699219 123.761719 304.097656 123.761719 288.089844 C 123.761719 272.085938 185.722656 260.035156 262.148438 260.035156 C 338.582031 260.035156 400.539062 272.085938 400.539062 288.089844 Z M 400.539062 288.089844 "/>
<path style=" stroke:none;fill-rule:nonzero;fill:rgb(98.823529%,81.176471%,35.686275%);fill-opacity:1;" d="M 199.15625 278.3125 C 196.488281 255.523438 165.5625 244.109375 182.089844 213.425781 C 193.234375 192.746094 238.6875 186.113281 248.761719 222.402344 C 256.511719 250.3125 233.648438 254.234375 230.285156 278.785156 Z M 199.15625 278.3125 "/>
<path style=" stroke:none;fill-rule:nonzero;fill:rgb(13.72549%,12.156863%,12.54902%);fill-opacity:1;" d="M 230.113281 292.445312 C 230.113281 292.445312 234.855469 288.675781 230.234375 286.179688 C 230.234375 286.179688 235.667969 281.804688 230.285156 278.785156 L 222.988281 278.675781 C 223.863281 270.734375 225.140625 262.808594 225.996094 254.886719 C 226.523438 249.972656 226.957031 245.042969 227.4375 240.128906 C 227.921875 235.273438 228.816406 230.320312 228.460938 225.441406 C 228.273438 222.875 228.242188 219.484375 225.703125 217.972656 C 223.976562 216.949219 222.429688 218.855469 221.695312 220.082031 C 220.671875 221.777344 220.066406 223.742188 219.539062 225.679688 C 218.816406 222.628906 217.488281 220.355469 215.066406 220.890625 C 212.117188 221.535156 210.785156 227.394531 210.179688 229.59375 C 210.125 229.78125 210.078125 229.972656 210.019531 230.164062 C 209.773438 228.988281 209.472656 227.820312 209.089844 226.664062 C 208.226562 224.058594 207.457031 220.542969 204.558594 219.429688 C 200.105469 217.722656 198.726562 227.984375 198.546875 230.09375 C 197.722656 239.949219 199.765625 250.296875 201.695312 259.921875 C 202.671875 264.777344 203.597656 269.65625 204.542969 274.515625 C 204.738281 275.53125 204.859375 276.964844 205.105469 278.402344 L 199.15625 278.3125 C 199.15625 278.3125 193.328125 280.609375 198.695312 285.789062 C 198.695312 285.789062 193.191406 288.378906 198.355469 292.332031 C 198.355469 292.332031 193.394531 295.410156 198.894531 298.277344 L 205.039062 298.613281 L 209.824219 304.027344 L 217.890625 304.445312 L 223.039062 299.296875 L 229.070312 299.066406 C 229.070312 299.066406 235.886719 296.089844 230.113281 292.445312 Z M 207.703125 278.445312 C 207.328125 277.003906 207.179688 275.417969 206.910156 274.027344 C 206.222656 270.46875 205.335938 266.960938 204.695312 263.394531 C 203.28125 255.484375 201.640625 247.636719 201.191406 239.597656 C 200.878906 234.023438 200.453125 228.476562 202.683594 223.199219 C 203.886719 220.347656 205.5625 224.085938 206.003906 225.210938 C 206.703125 227.023438 207.289062 228.820312 207.722656 230.703125 C 208.226562 232.878906 208.484375 235.101562 208.769531 237.316406 C 208.757812 238.535156 208.90625 239.71875 209.292969 240.8125 C 209.300781 240.824219 209.300781 240.832031 209.300781 240.84375 C 209.304688 240.84375 209.304688 240.84375 209.308594 240.84375 C 209.339844 240.941406 209.371094 241.035156 209.40625 241.128906 C 209.921875 242.398438 211.902344 241.59375 211.671875 240.351562 C 211.421875 239.03125 211.230469 237.699219 211.039062 236.371094 C 211.191406 232.421875 213.007812 227.671875 214.5 224.890625 C 216.3125 221.507812 217.324219 229.046875 217.464844 230.078125 C 217.582031 230.921875 217.667969 231.800781 217.738281 232.6875 C 217.410156 234.550781 217.34375 236.425781 217.949219 237.960938 C 218.394531 239.085938 220.175781 238.574219 220.238281 237.5 C 220.28125 236.796875 220.332031 235.550781 220.328125 234.039062 C 220.402344 233.742188 220.46875 233.4375 220.492188 233.125 C 220.617188 231.136719 221.046875 229.289062 221.582031 227.375 C 222.058594 225.695312 222.566406 224.027344 223.21875 222.402344 C 224.140625 220.128906 225.433594 220.960938 225.691406 223.128906 C 225.925781 225.121094 226.179688 227.023438 226.117188 229.035156 C 226.003906 232.667969 225.421875 236.382812 225.023438 240 C 224.1875 247.542969 223.457031 255.105469 222.785156 262.667969 C 222.316406 268.011719 221.382812 273.3125 220.671875 278.636719 Z M 207.703125 278.445312 "/>
<path style=" stroke:none;fill-rule:nonzero;fill:rgb(99.215686%,88.627451%,61.568627%);fill-opacity:1;" d="M 183.332031 229.988281 C 184.46875 227.5625 184.925781 224.925781 185.890625 222.433594 C 186.613281 220.5625 187.605469 218.894531 188.699219 217.203125 C 189.867188 215.402344 191.046875 213.496094 192.316406 211.773438 C 192.753906 211.183594 192.304688 210.367188 191.503906 210.574219 C 188.964844 211.234375 187.414062 212.609375 185.988281 214.714844 C 184.824219 216.4375 183.777344 218.199219 182.988281 220.105469 C 181.75 223.085938 180.996094 226.300781 181 229.511719 C 181 230.667969 182.832031 231.042969 183.332031 229.988281 Z M 183.332031 229.988281 "/>
<path style=" stroke:none;fill-rule:nonzero;fill:rgb(99.215686%,88.627451%,61.568627%);fill-opacity:1;" d="M 198.011719 205.761719 C 197.988281 205.746094 197.96875 205.730469 197.953125 205.710938 C 198.042969 205.816406 198.136719 205.921875 198.230469 206.027344 C 197.820312 205.507812 197.21875 204.949219 196.460938 205.082031 C 196.742188 205.140625 197.03125 205.199219 197.316406 205.257812 C 197.300781 205.25 197.285156 205.242188 197.265625 205.234375 C 196.734375 205.003906 196.144531 205 195.640625 205.308594 C 195.164062 205.605469 194.855469 206.152344 194.902344 206.699219 C 194.90625 206.714844 194.90625 206.730469 194.90625 206.746094 C 194.96875 206.472656 195.027344 206.199219 195.089844 205.925781 C 194.761719 206.496094 194.851562 207.203125 195.234375 207.726562 C 195.640625 208.28125 196.289062 208.558594 196.984375 208.53125 C 197.5625 208.507812 198.101562 208.160156 198.367188 207.675781 C 198.6875 207.082031 198.597656 206.191406 198.011719 205.761719 Z M 198.011719 205.761719 "/>
<path style=" stroke:none;fill-rule:nonzero;fill:rgb(99.215686%,88.627451%,61.568627%);fill-opacity:1;" d="M 237.671875 252.40625 C 238.960938 252.941406 240.019531 251.453125 240.601562 250.589844 C 241.503906 249.25 242.265625 247.800781 243.070312 246.40625 C 243.765625 245.199219 244.539062 243.921875 244.890625 242.578125 C 245.148438 241.605469 245.140625 239.683594 243.886719 239.292969 C 242.871094 238.972656 242.003906 240.429688 241.640625 241.097656 C 240.898438 242.453125 240.332031 243.882812 239.570312 245.234375 C 238.839844 246.527344 238.152344 247.84375 237.523438 249.1875 C 237.082031 250.132812 236.253906 251.820312 237.671875 252.40625 Z M 237.671875 252.40625 "/>
<path style=" stroke:none;fill-rule:nonzero;fill:rgb(98.823529%,81.176471%,35.686275%);fill-opacity:1;" d="M 253.664062 223.136719 C 255.3125 221.867188 257.0625 219.609375 258.417969 217.648438 C 260.824219 214.164062 262.703125 210.035156 264.34375 205.601562 C 264.746094 204.507812 264.050781 202.722656 263.230469 203.289062 C 259.96875 205.53125 257.550781 208.144531 255.296875 212.664062 C 254.0625 215.148438 251.285156 217.472656 251.613281 221.261719 C 251.761719 222.96875 252.660156 223.90625 253.664062 223.136719 Z M 253.664062 223.136719 "/>
<path style=" stroke:none;fill-rule:nonzero;fill:rgb(98.823529%,81.176471%,35.686275%);fill-opacity:1;" d="M 175.34375 222.339844 C 175.214844 217.902344 172.875 214.703125 171.253906 211.441406 C 170.441406 209.796875 169.523438 208.285156 168.683594 206.679688 C 167.753906 204.902344 166.953125 202.984375 165.835938 201.511719 C 165.019531 200.441406 163.382812 200.570312 163.195312 202.667969 C 162.746094 207.570312 164.933594 211.042969 166.871094 214.324219 C 168.886719 217.734375 170.894531 221.84375 173.5 224.078125 C 174.289062 224.75 175.394531 223.90625 175.34375 222.339844 Z M 175.34375 222.339844 "/>
<path style=" stroke:none;fill-rule:nonzero;fill:rgb(98.823529%,81.176471%,35.686275%);fill-opacity:1;" d="M 177.210938 178.941406 C 176.8125 183.449219 178.363281 187.726562 179.601562 191.605469 C 181.035156 196.109375 182.847656 199.832031 184.992188 203.484375 C 185.546875 204.421875 186.59375 203.699219 186.5625 202.414062 C 186.457031 197.65625 185.507812 193.644531 184.089844 189.523438 C 182.789062 185.753906 181.617188 180.929688 179.75 177.828125 C 179.019531 176.613281 177.375 177.074219 177.210938 178.941406 Z M 177.210938 178.941406 "/>
<path style=" stroke:none;fill-rule:nonzero;fill:rgb(98.823529%,81.176471%,35.686275%);fill-opacity:1;" d="M 229.542969 197.371094 C 230.367188 196.101562 230.878906 193.972656 231.355469 192.328125 C 232.066406 189.871094 232.699219 187.421875 233.277344 184.882812 C 233.910156 182.113281 234.566406 179.363281 235.105469 176.546875 C 235.632812 173.792969 236.429688 170.742188 236.261719 167.808594 C 236.214844 167.015625 235.738281 166.507812 235.28125 166.914062 C 233.808594 168.222656 232.652344 170.984375 231.882812 173.339844 C 230.847656 176.519531 229.945312 179.710938 229.246094 183.132812 C 228.519531 186.664062 226.269531 194.242188 228.472656 197.382812 C 228.792969 197.832031 229.230469 197.847656 229.542969 197.371094 Z M 229.542969 197.371094 "/>
<path style=" stroke:none;fill-rule:nonzero;fill:rgb(98.823529%,81.176471%,35.686275%);fill-opacity:1;" d="M 243.410156 206.347656 C 243.007812 207.011719 243.738281 205.761719 243.75 205.710938 C 243.808594 205.476562 243.882812 205.265625 243.964844 205.046875 C 244.246094 204.320312 244.523438 203.597656 244.832031 202.847656 C 245.644531 200.839844 246.539062 198.921875 247.4375 197.015625 C 249.179688 193.328125 251.214844 189.78125 252.195312 185.558594 C 252.707031 183.339844 251.027344 182.039062 249.972656 182.835938 C 247.210938 184.925781 245.0625 190.011719 243.378906 194.222656 C 242.492188 196.457031 239.253906 204.761719 242.039062 206.648438 C 242.515625 206.96875 243.019531 206.988281 243.410156 206.347656 Z M 243.410156 206.347656 "/>
<path style=" stroke:none;fill-rule:nonzero;fill:rgb(98.823529%,81.176471%,35.686275%);fill-opacity:1;" d="M 215.558594 190.421875 C 216.511719 189.027344 216.71875 186.390625 217.054688 184.476562 C 217.601562 181.316406 217.757812 177.949219 217.96875 174.695312 C 218.191406 171.273438 218.117188 167.796875 217.949219 164.371094 C 217.8125 161.40625 217.550781 158.03125 216.441406 155.574219 C 216.125 154.871094 215.570312 154.871094 215.253906 155.585938 C 214.15625 158.125 214.082031 161.421875 213.953125 164.417969 C 213.804688 167.84375 213.835938 171.304688 213.765625 174.738281 C 213.699219 178.066406 213.539062 181.382812 213.464844 184.710938 C 213.414062 186.785156 213.488281 189.339844 214.625 190.628906 C 214.917969 190.957031 215.316406 190.773438 215.558594 190.421875 Z M 215.558594 190.421875 "/>
<path style=" stroke:none;fill-rule:nonzero;fill:rgb(98.823529%,81.176471%,35.686275%);fill-opacity:1;" d="M 200.144531 194.15625 C 200.136719 194.246094 200.125 194.332031 200.121094 194.425781 C 200.078125 194.992188 200.523438 195.082031 200.726562 194.824219 C 202.722656 192.277344 200.988281 185.441406 200.472656 182.363281 C 199.734375 178 198.984375 171.507812 196.652344 168.582031 C 196.144531 167.949219 195.355469 168.09375 195.171875 169.234375 C 194.371094 174.242188 195.238281 179.542969 196.269531 184.285156 C 196.878906 187.085938 198.085938 195.042969 200.476562 194.992188 C 200.476562 194.609375 200.476562 194.230469 200.476562 193.851562 C 200.417969 193.863281 200.359375 193.878906 200.308594 193.890625 C 200.207031 193.910156 200.15625 193.996094 200.144531 194.15625 Z M 200.144531 194.15625 "/>
<path style=" stroke:none;fill-rule:nonzero;fill:rgb(20%,20%,20%);fill-opacity:1;" d="M 155.050781 268.085938 L 155.050781 261.667969 L 180.757812 245.996094 L 180.757812 252.835938 L 160.371094 264.914062 L 180.757812 277.105469 L 180.757812 283.949219 Z M 272.660156 268.085938 L 246.957031 283.949219 L 246.957031 277.105469 L 267.3125 264.914062 L 246.957031 252.835938 L 246.957031 245.996094 L 272.660156 261.667969 Z M 293.144531 274.582031 L 297.988281 273.972656 C 298.21875 276.773438 298.753906 279.074219 299.59375 280.871094 C 300.429688 282.667969 301.734375 284.121094 303.496094 285.230469 C 305.261719 286.335938 307.246094 286.890625 309.453125 286.890625 C 311.410156 286.890625 313.140625 286.472656 314.640625 285.628906 C 316.140625 284.789062 317.257812 283.636719 317.988281 282.175781 C 318.722656 280.707031 319.085938 279.109375 319.085938 277.371094 C 319.085938 275.617188 318.734375 274.082031 318.027344 272.769531 C 317.324219 271.457031 316.160156 270.355469 314.535156 269.460938 C 313.496094 268.875 311.191406 267.964844 307.628906 266.730469 C 304.0625 265.496094 301.5625 264.328125 300.136719 263.234375 C 298.28125 261.832031 296.898438 260.089844 295.992188 258.015625 C 295.082031 255.9375 294.628906 253.613281 294.628906 251.039062 C 294.628906 248.210938 295.183594 245.566406 296.296875 243.109375 C 297.40625 240.648438 299.03125 238.78125 301.167969 237.507812 C 303.304688 236.234375 305.675781 235.597656 308.289062 235.597656 C 311.164062 235.597656 313.699219 236.265625 315.898438 237.605469 C 318.09375 238.941406 319.785156 240.910156 320.96875 243.507812 C 322.148438 246.109375 322.785156 249.054688 322.875 252.339844 L 317.949219 252.871094 C 317.6875 249.332031 316.789062 246.65625 315.261719 244.847656 C 313.738281 243.039062 311.484375 242.132812 308.5 242.132812 C 305.394531 242.132812 303.128906 242.957031 301.710938 244.597656 C 300.289062 246.242188 299.578125 248.222656 299.578125 250.542969 C 299.578125 252.554688 300.082031 254.214844 301.085938 255.511719 C 302.074219 256.8125 304.65625 258.144531 308.828125 259.507812 C 313.003906 260.867188 315.867188 262.058594 317.421875 263.078125 C 319.679688 264.582031 321.347656 266.488281 322.421875 268.796875 C 323.5 271.097656 324.039062 273.757812 324.039062 276.765625 C 324.039062 279.746094 323.449219 282.554688 322.265625 285.191406 C 321.082031 287.828125 319.382812 289.882812 317.167969 291.347656 C 314.953125 292.808594 312.460938 293.542969 309.691406 293.542969 C 306.179688 293.542969 303.234375 292.804688 300.863281 291.324219 C 298.488281 289.847656 296.628906 287.625 295.277344 284.65625 C 293.925781 281.6875 293.214844 278.332031 293.144531 274.582031 Z M 331.929688 292.585938 L 331.929688 236.554688 L 337.066406 236.554688 L 337.066406 292.585938 Z M 344.371094 274.582031 L 349.214844 273.972656 C 349.441406 276.773438 349.976562 279.074219 350.816406 280.871094 C 351.652344 282.667969 352.953125 284.121094 354.71875 285.230469 C 356.484375 286.335938 358.46875 286.890625 360.675781 286.890625 C 362.636719 286.890625 364.367188 286.472656 365.863281 285.628906 C 367.363281 284.789062 368.480469 283.636719 369.214844 282.175781 C 369.945312 280.707031 370.3125 279.109375 370.3125 277.371094 C 370.3125 275.617188 369.957031 274.082031 369.253906 272.769531 C 368.546875 271.457031 367.382812 270.355469 365.757812 269.460938 C 364.71875 268.875 362.414062 267.964844 358.847656 266.730469 C 355.285156 265.496094 352.785156 264.328125 351.355469 263.234375 C 349.503906 261.832031 348.121094 260.089844 347.214844 258.015625 C 346.304688 255.9375 345.851562 253.613281 345.851562 251.039062 C 345.851562 248.210938 346.40625 245.566406 347.519531 243.109375 C 348.632812 240.648438 350.253906 238.78125 352.390625 237.507812 C 354.523438 236.234375 356.898438 235.597656 359.511719 235.597656 C 362.386719 235.597656 364.925781 236.265625 367.121094 237.605469 C 369.320312 238.941406 371.007812 240.910156 372.191406 243.507812 C 373.375 246.109375 374.007812 249.054688 374.097656 252.339844 L 369.171875 252.871094 C 368.910156 249.332031 368.015625 246.65625 366.488281 244.847656 C 364.960938 243.039062 362.707031 242.132812 359.722656 242.132812 C 356.617188 242.132812 354.355469 242.957031 352.933594 244.597656 C 351.511719 246.242188 350.804688 248.222656 350.804688 250.542969 C 350.804688 252.554688 351.304688 254.214844 352.3125 255.511719 C 353.300781 256.8125 355.878906 258.144531 360.054688 259.507812 C 364.226562 260.867188 367.089844 262.058594 368.644531 263.078125 C 370.902344 264.582031 372.570312 266.488281 373.648438 268.796875 C 374.726562 271.097656 375.261719 273.757812 375.261719 276.765625 C 375.261719 279.746094 374.671875 282.554688 373.488281 285.191406 C 372.308594 287.828125 370.609375 289.882812 368.390625 291.347656 C 366.175781 292.808594 363.683594 293.542969 360.914062 293.542969 C 357.402344 293.542969 354.457031 292.804688 352.085938 291.324219 C 349.710938 289.847656 347.851562 287.625 346.5 284.65625 C 345.152344 281.6875 344.441406 278.332031 344.371094 274.582031 Z M 344.371094 274.582031 "/>
</g>
</svg>
