<?xml version="1.0" standalone="no"?>
<!DOCTYPE svg PUBLIC "-//W3C//DTD SVG 20010904//EN"
 "http://www.w3.org/TR/2001/REC-SVG-20010904/DTD/svg10.dtd">
<svg version="1.0" xmlns="http://www.w3.org/2000/svg"
 width="1280.000000pt" height="1120.000000pt" viewBox="0 0 1280.000000 1120.000000"
 preserveAspectRatio="xMidYMid meet">
<metadata>
Created by potrace 1.15, written by Peter Selinger 2001-2017
</metadata>
<g transform="translate(0.000000,1120.000000) scale(0.100000,-0.100000)"
fill="#000000" stroke="none">
<path d="M7785 10733 c-312 -19 -575 -85 -810 -203 -157 -78 -286 -172 -410
-295 -316 -317 -465 -723 -465 -1268 0 -427 85 -751 273 -1035 277 -419 726
-675 1285 -733 150 -15 545 -6 672 15 387 67 693 215 937 456 229 225 379 511
448 852 79 396 50 848 -76 1166 -196 494 -590 846 -1089 975 -234 61 -511 86
-765 70z m441 -856 c159 -52 262 -145 339 -302 78 -160 105 -312 105 -588 0
-287 -34 -457 -123 -632 -117 -228 -324 -345 -612 -345 -514 0 -755 297 -755
934 0 237 40 429 121 586 78 151 171 243 314 311 119 58 182 69 370 65 141 -3
170 -6 241 -29z"/>
<path d="M10409 8102 c-128 -58 -191 -93 -519 -282 -140 -81 -383 -220 -540
-310 -156 -90 -431 -248 -610 -353 -360 -211 -584 -330 -765 -407 -263 -112
-313 -139 -382 -210 -134 -136 -103 -268 82 -351 37 -17 75 -24 146 -27 166
-7 295 31 572 170 206 102 356 195 716 442 180 123 376 256 436 296 110 73
110 73 71 29 -40 -44 -663 -692 -3921 -4069 -979 -1015 -1815 -1882 -1857
-1926 -121 -128 -117 -164 31 -307 99 -95 140 -116 195 -97 26 8 113 93 333
323 338 353 954 999 3652 3827 1041 1092 1918 2010 1947 2040 l54 54 -11 -37
c-6 -21 -26 -82 -45 -135 -20 -53 -57 -160 -84 -237 -26 -77 -77 -210 -113
-295 -61 -145 -72 -186 -68 -252 1 -35 44 -84 94 -109 58 -30 172 -24 247 13
30 15 55 26 57 25 2 -3 -980 -988 -3696 -3709 -1481 -1483 -1653 -1658 -1641
-1673 8 -9 37 -30 65 -46 l50 -29 3245 0 3246 0 44 23 c26 13 57 40 75 65 l30
44 0 3286 0 3287 -29 45 c-16 25 -31 47 -33 50 -2 2 -285 -277 -629 -620 -345
-344 -624 -620 -622 -615 2 6 17 37 32 70 44 94 89 224 156 451 34 115 97 322
140 459 129 410 211 713 240 881 11 67 10 76 -11 123 -39 91 -116 141 -216
141 -47 -1 -78 -10 -164 -48z m304 -2613 c13 -6 36 -29 50 -52 l27 -41 0
-2106 0 -2106 -27 -42 c-42 -65 -105 -92 -212 -92 -96 0 -146 20 -185 73 l-21
28 -3 2086 c-1 1367 1 2098 8 2122 12 44 62 104 105 126 36 18 221 21 258 4z
m-1128 -1555 c20 -9 42 -33 59 -63 l26 -49 0 -1319 0 -1319 -25 -50 c-16 -32
-39 -59 -67 -77 -39 -25 -50 -27 -145 -27 -115 0 -144 9 -187 60 l-26 32 0
1344 c0 1465 -4 1369 57 1425 52 49 81 58 181 59 65 0 104 -5 127 -16z m-1121
-778 c19 -8 46 -31 60 -52 l26 -39 0 -943 0 -944 -22 -39 c-12 -21 -39 -51
-61 -66 -38 -27 -46 -28 -152 -28 -102 0 -115 2 -147 24 -67 47 -63 -24 -66
991 -2 676 0 936 8 965 30 101 99 145 233 145 53 0 101 -6 121 -14z m-1033
-668 c61 -61 59 -41 59 -700 l0 -603 -29 -50 c-43 -75 -103 -105 -210 -105
-93 0 -133 13 -179 59 l-32 33 0 630 0 631 25 43 c14 24 44 54 68 68 38 24 52
26 154 26 l111 0 33 -32z"/>
<path d="M4720 7539 c-645 -73 -1184 -510 -1384 -1121 -162 -496 -133 -1147
72 -1578 226 -475 687 -787 1272 -860 326 -40 781 -11 1103 70 121 31 278 86
352 122 81 41 75 9 75 404 0 224 -4 355 -10 359 -5 3 -10 17 -10 31 0 24 -18
32 -35 15 -21 -20 -214 -110 -298 -140 -383 -134 -853 -144 -1149 -24 -129 52
-250 152 -312 257 -54 93 -110 322 -85 352 10 12 183 14 1088 14 877 0 1081 2
1095 13 17 13 18 34 13 358 -6 379 -16 466 -79 684 -41 142 -156 371 -244 489
-212 281 -490 454 -843 526 -190 38 -438 50 -621 29z m426 -749 c138 -36 223
-110 288 -251 43 -94 66 -196 73 -327 l6 -103 -601 3 c-330 2 -604 6 -608 11
-4 4 0 40 10 80 68 289 254 514 486 588 80 26 243 25 346 -1z"/>
<path d="M2305 4134 c-787 -46 -1281 -396 -1345 -954 -28 -240 22 -491 132
-660 149 -229 422 -392 948 -567 265 -88 371 -135 433 -193 59 -54 81 -109 75
-190 -10 -143 -153 -238 -403 -269 -331 -40 -682 32 -1043 216 -79 40 -145 73
-148 73 -2 0 -4 -189 -4 -419 l0 -419 47 -27 c91 -50 354 -116 603 -151 180
-26 637 -26 805 -1 407 60 694 184 896 386 195 195 280 405 280 692 0 204 -18
292 -88 433 -99 200 -238 334 -473 455 -152 79 -245 116 -509 206 -247 84
-361 136 -428 198 -56 51 -73 89 -73 162 0 88 54 171 139 214 93 48 171 64
336 69 256 7 522 -45 740 -144 55 -26 112 -49 128 -51 l27 -5 0 376 c0 355 -1
377 -20 408 -22 37 -40 43 -241 88 -243 53 -603 86 -814 74z"/>
</g>
</svg>
