<?xml version="1.0" encoding="UTF-8" standalone="no"?>
<!-- Created with Inkscape (http://www.inkscape.org/) -->

<svg
   xmlns:dc="http://purl.org/dc/elements/1.1/"
   xmlns:cc="http://creativecommons.org/ns#"
   xmlns:rdf="http://www.w3.org/1999/02/22-rdf-syntax-ns#"
   xmlns:svg="http://www.w3.org/2000/svg"
   xmlns="http://www.w3.org/2000/svg"
   xmlns:sodipodi="http://sodipodi.sourceforge.net/DTD/sodipodi-0.dtd"
   xmlns:inkscape="http://www.inkscape.org/namespaces/inkscape"
   width="98.383461mm"
   height="61.112534mm"
   viewBox="0 0 348.60281 216.54047"
   id="svg2"
   version="1.1"
   inkscape:version="0.91 r13725"
   sodipodi:docname="WordPress logo.svg">
  <title
     id="title4212">WordPress logo</title>
  <defs
     id="defs4" />
  <sodipodi:namedview
     id="base"
     pagecolor="#ffffff"
     bordercolor="#666666"
     borderopacity="1.0"
     inkscape:pageopacity="0.0"
     inkscape:pageshadow="2"
     inkscape:zoom="0.98994949"
     inkscape:cx="231.36448"
     inkscape:cy="112.57668"
     inkscape:document-units="px"
     inkscape:current-layer="layer1"
     showgrid="false"
     fit-margin-top="0"
     fit-margin-left="0"
     fit-margin-right="0"
     fit-margin-bottom="0"
     inkscape:window-width="1366"
     inkscape:window-height="705"
     inkscape:window-x="-8"
     inkscape:window-y="-8"
     inkscape:window-maximized="1" />
  <metadata
     id="metadata7">
    <rdf:RDF>
      <cc:Work
         rdf:about="">
        <dc:format>image/svg+xml</dc:format>
        <dc:type
           rdf:resource="http://purl.org/dc/dcmitype/StillImage" />
        <dc:title>WordPress logo</dc:title>
        <dc:date>26/11/2016</dc:date>
        <dc:creator>
          <cc:Agent>
            <dc:title>WordPress</dc:title>
          </cc:Agent>
        </dc:creator>
        <dc:publisher>
          <cc:Agent>
            <dc:title>CMetalCore</dc:title>
          </cc:Agent>
        </dc:publisher>
        <dc:source>https://s.w.org/about/images/logos/wordpress-logo-stacked-rgb.png</dc:source>
        <dc:language>English</dc:language>
        <cc:license
           rdf:resource="http://creativecommons.org/licenses/by-sa/3.0/" />
      </cc:Work>
      <cc:License
         rdf:about="http://creativecommons.org/licenses/by-sa/3.0/">
        <cc:permits
           rdf:resource="http://creativecommons.org/ns#Reproduction" />
        <cc:permits
           rdf:resource="http://creativecommons.org/ns#Distribution" />
        <cc:requires
           rdf:resource="http://creativecommons.org/ns#Notice" />
        <cc:requires
           rdf:resource="http://creativecommons.org/ns#Attribution" />
        <cc:permits
           rdf:resource="http://creativecommons.org/ns#DerivativeWorks" />
        <cc:requires
           rdf:resource="http://creativecommons.org/ns#ShareAlike" />
      </cc:License>
    </rdf:RDF>
  </metadata>
  <g
     inkscape:label="Capa 1"
     inkscape:groupmode="layer"
     id="layer1"
     transform="translate(-94.270021,-72.68702)">
    <g
       id="g4207"
       transform="matrix(0.55888227,0,0,0.55888227,64.978598,-27.960983)">
      <path
         d="m 273.30697,529.46907 c 6.51022,-7.56856 1.91868,-17.57682 -8.70875,-18.98265 l -5.9375,-0.78542 0,12.20747 0,12.20747 5.89625,-0.66459 c 4.32024,-0.48695 6.65904,-1.55139 8.75,-3.98228 z m 71.59024,26.2037 c 6.84963,-3.5421 10.01351,-10.4312 10.01351,-21.80362 0,-8.6225 -3.96747,-17.20398 -9.375,-20.27772 -2.0625,-1.17236 -7.26562,-2.52351 -11.5625,-3.00256 l -7.8125,-0.87097 0,23.22434 c 0,20.77953 0.23028,23.36403 2.1875,24.55143 2.57572,1.5626 12.01443,0.524 16.54899,-1.8209 z m -111.23649,6.868 c 0,-1.9337 0.83334,-2.5 3.67913,-2.5 6.68369,0 7.57087,-3.0354 7.57087,-25.9031 0,-18.6802 -0.20478,-20.55165 -2.5,-22.84686 -1.375,-1.375 -3.90625,-2.5 -5.625,-2.5 -2.33378,0 -3.125,-0.65964 -3.125,-2.60536 0,-2.55386 0.41384,-2.59688 20.9375,-2.17621 18.83919,0.38612 21.46733,0.71109 26.22424,3.24262 11.74361,6.24968 12.37408,21.98669 1.15853,28.91828 -2.33219,1.44137 -5.28387,2.62067 -6.55928,2.62067 -3.02414,0 13.33933,16.66956 19.00056,19.35606 5.36717,2.5468 13.46484,2.4573 15.6479,-0.1732 1.30937,-1.5777 1.71555,-7.2247 1.71555,-23.85075 0,-20.12073 -0.18522,-21.91907 -2.42641,-23.55787 -1.33452,-0.97584 -4.0064,-1.77424 -5.9375,-1.77424 -2.67775,0 -3.51109,-0.59336 -3.51109,-2.5 0,-2.39445 0.83334,-2.5 19.73738,-2.5 22.22094,0 31.61342,1.71616 39.56932,7.22997 15.44022,10.7008 14.94604,36.66399 -0.90122,47.34959 -8.54718,5.7633 -15.09836,6.6706 -48.1545,6.6693 l -29.62598,0 -9.87901,-12.4988 c -5.43345,-6.8744 -10.35532,-12.49886 -10.9375,-12.49886 -0.58216,0 -1.05849,3.24986 -1.05849,7.22186 0,8.8361 2.33563,12.7781 7.57088,12.7781 2.84579,0 3.67912,0.5663 3.67912,2.5 0,2.3851 -0.83333,2.5 -18.125,2.5 -17.29166,0 -18.125,-0.1148 -18.125,-2.5 z m -26.5457,-5.7791 c 12.22555,-8.9071 12.2,-35.74425 -0.0424,-44.46156 -5.43783,-3.87208 -16.28831,-4.48637 -22.16196,-1.25471 -6.52262,3.58871 -11.25,13.37504 -11.25,23.28901 0,10.04286 4.78371,20.04006 11.25,23.51076 5.72266,3.0715 17.27501,2.5078 22.2043,-1.0835 z m -21.5793,9.6847 c -11.16429,-2.9635 -22.60038,-13.0532 -25.40497,-22.4141 -4.78154,-15.95935 3.22673,-31.97172 19.71646,-39.42271 8.165,-3.6894 22.18516,-3.53783 30.97233,0.33485 7.2037,3.17481 15.78755,11.61771 18.56151,18.25674 2.4867,5.95152 2.2109,17.6504 -0.55909,23.71462 -2.76236,6.0476 -11.98377,14.7798 -18.51436,17.5321 -5.53286,2.3318 -19.3243,3.4445 -24.77188,1.9985 z M 78.760402,535.35331 c -13.434305,-41.65282 -14.699912,-44.0625 -23.142504,-44.0625 -2.373844,0 -3.207177,-0.64959 -3.207177,-2.5 0,-2.39584 0.833333,-2.5 20,-2.5 19.166666,0 20,0.10412 20,2.5 0,1.9309 -0.833334,2.5 -3.660714,2.5 -3.331502,0 -7.587053,2.67796 -7.590801,4.77679 -8.32e-4,0.46651 2.916237,10.01331 6.482378,21.21509 4.876636,15.31825 6.772364,19.85141 7.647631,18.2874 0.640056,-1.14372 4.659507,-12.55882 8.932115,-25.36688 10.48887,-31.44265 10.17897,-31.45355 20.6634,0.7265 4.43254,13.60485 8.38242,25.1512 8.77752,25.65855 0.3951,0.50734 3.77722,-8.36895 7.51581,-19.7251 7.56225,-22.97069 7.53189,-24.65581 -0.45643,-25.33531 -3.54691,-0.3017 -4.56091,-0.92698 -4.56091,-2.8125 0,-2.28393 1.01488,-2.42454 17.5,-2.42454 16.66667,0 17.5,0.119 17.5,2.5 0,2.03405 -0.83333,2.5 -4.47115,2.5 -8.30126,0 -10.08489,3.23724 -22.93509,41.62635 -8.98013,26.82751 -12.07063,34.66551 -13.55398,34.37501 -1.30461,-0.2555 -4.50434,-8.4023 -9.96681,-25.3764 -4.42493,-13.74996 -8.43546,-25.412 -8.9123,-25.91561 -0.47683,-0.50361 -4.77114,10.88701 -9.5429,25.3125 -6.433775,19.44991 -9.187715,26.22811 -10.656283,26.22811 -1.487097,0 -4.566132,-8.0171 -12.361805,-32.18746 z"
         style="fill:#21759a;fill-opacity:1"
         id="path4187"
         inkscape:connector-curvature="0" />
      <path
         d="m 479.18901,532.03677 c 9.26898,-3.87282 8.33739,-17.95823 -1.36594,-20.65266 -10.37041,-2.87966 -10.41235,-2.83724 -10.41235,10.5317 l 0,11.875 3.79015,0 c 2.08458,0 5.67924,-0.78931 7.98814,-1.75404 z m -36.77829,30.504 c 0,-1.9309 0.83334,-2.5 3.66072,-2.5 2.0134,0 4.49932,-0.8386 5.52428,-1.8635 2.53109,-2.5311 3.79167,-15.8317 2.9897,-31.545 -0.73882,-14.47608 -2.36448,-17.84146 -8.61843,-17.84146 -2.77882,0 -3.55627,-0.57357 -3.55627,-2.62369 0,-2.58135 0.34799,-2.61625 21.5625,-2.16245 22.69809,0.48554 24.69174,0.93232 31.18927,6.98955 8.65497,8.06848 3.94698,24.60212 -7.73619,27.16817 l -3.74253,0.822 5.92598,6.86608 c 11.18325,12.9575 22.64316,17.7825 27.1051,11.4122 1.56769,-2.2382 1.94587,-6.7326 1.94587,-23.125 0,-18.6802 -0.20478,-20.55165 -2.5,-22.84686 -1.375,-1.375 -3.90625,-2.5 -5.625,-2.5 -2.29166,0 -3.125,-0.66666 -3.125,-2.5 0,-2.42211 0.83334,-2.5 26.74814,-2.5 l 26.74814,0 0.88616,8.82404 c 0.48739,4.85321 0.56874,9.14145 0.18078,9.52942 -1.55269,1.55268 -4.25067,-0.85321 -4.96563,-4.42805 -0.98481,-4.92401 -3.20621,-5.97688 -14.91009,-7.06691 l -9.6875,-0.90222 0,10.16163 0,10.16164 5.3125,-0.78826 c 5.84838,-0.86776 8.4375,-3.20149 8.4375,-7.6052 0,-2.05275 0.72185,-2.88609 2.5,-2.88609 2.35508,0 2.5,0.83334 2.5,14.375 0,13.54166 -0.14492,14.37496 -2.5,14.37496 -1.93373,0 -2.5,-0.8333 -2.5,-3.6791 0,-4.51043 -3.90213,-7.57086 -9.65313,-7.57086 l -4.09687,0 0,7.98656 c 0,11.2882 2.29279,13.9115 12.07949,13.8208 11.11908,-0.103 13.77319,-1.1561 15.59211,-6.1862 1.06047,-2.9327 2.3721,-4.3712 3.98577,-4.3712 2.02708,0 2.28233,0.614 1.62388,3.9063 -0.42968,2.1484 -0.78125,6.0859 -0.78125,8.75 l 0,4.8437 -37.8125,-0.06 -37.8125,-0.06 -9.79547,-12.4404 c -5.38751,-6.8422 -10.30939,-12.44036 -10.9375,-12.44036 -2.53816,0 -0.0189,17.10946 2.78046,18.88306 0.93639,0.5933 3.24939,1.0873 5.14001,1.0978 2.59779,0.014 3.4375,0.6298 3.4375,2.5191 0,2.3889 -0.83333,2.5 -18.75,2.5 -17.91666,0 -18.75,-0.1111 -18.75,-2.5 z M 417.2045,522.02245 c 9.40069,-4.86128 9.40069,-21.602 0,-26.46328 -1.88079,-0.9726 -6.26006,-1.76836 -9.7317,-1.76836 l -6.31208,0 0,15 0,15 6.31208,0 c 3.47164,0 7.85091,-0.79576 9.7317,-1.76836 z m -44.79378,40.51832 c 0,-1.9527 0.83334,-2.5 3.80682,-2.5 2.32913,0 4.94706,-1.1402 6.74428,-2.9374 2.52023,-2.5202 3.06948,-4.6953 3.86683,-15.3125 0.51115,-6.8063 0.5994,-19.37338 0.1961,-27.92688 -0.85873,-18.21298 -2.42221,-21.68759 -10.0507,-22.33614 -3.61161,-0.30704 -4.56333,-0.91283 -4.56333,-2.90463 0,-2.45271 0.64343,-2.5064 25.3125,-2.11205 25.2434,0.40354 25.32903,0.41435 31.36484,3.96213 10.2826,6.04399 13.50745,17.46367 8.01016,28.36515 -4.17808,8.28541 -12.97297,12.45236 -26.2823,12.45236 l -9.89652,0 0.43316,11.98686 c 0.39086,10.8163 0.72133,12.22 3.38414,14.375 1.62305,1.3135 4.57617,2.3881 6.5625,2.3881 2.77819,0 3.61152,0.5769 3.61152,2.5 0,2.402 -0.83333,2.5 -21.25,2.5 -20.41666,0 -21.25,-0.098 -21.25,-2.5 z m 258.75,-8.125 c 0,-12.1106 0.18553,-13.12496 2.40068,-13.12496 1.65529,0 2.65846,1.17366 3.2309,3.77996 1.01607,4.6262 5.94816,10.68 10.70525,13.1399 7.85564,4.0624 17.41317,1.031 17.41317,-5.5228 0,-4.5046 -3.43552,-7.5443 -15,-13.27206 -10.31768,-5.11021 -14.34098,-8.27685 -16.99376,-13.37542 -3.82921,-7.35963 -0.61824,-17.7286 6.62599,-21.39683 7.09347,-3.5919 12.41701,-3.6291 23.80527,-0.16635 2.1095,0.64143 2.8125,0.35008 2.8125,-1.16561 0,-1.18745 1.03095,-2.02079 2.5,-2.02079 2.31482,0 2.5,0.83334 2.5,11.25 0,9.99794 -0.25028,11.25 -2.24888,11.25 -1.42935,0 -2.81727,-1.5718 -3.80855,-4.31314 -3.37534,-9.33435 -14.52469,-13.85473 -20.19257,-8.18686 -5.24778,5.24779 -2.38257,8.83874 12.69935,15.91594 13.81755,6.4839 18.55065,11.72521 18.55065,20.54252 0,11.3591 -6.68952,18.1225 -19.20196,19.4139 -5.10709,0.5271 -7.98765,0.079 -12.59556,-1.9593 -6.15493,-2.7226 -8.20248,-2.5889 -8.20248,0.5357 0,0.9907 -1.125,1.8012 -2.5,1.8012 -2.34127,0 -2.5,-0.8333 -2.5,-13.125 z m -55,0 c 0,-12.2916 0.15873,-13.12496 2.5,-13.12496 1.53979,0 2.5079,0.84016 2.52057,2.18746 0.0378,4.013 5.5517,11.8992 9.95993,14.2449 8.77604,4.6699 18.7695,1.6939 18.7695,-5.5895 0,-3.9968 -3.73387,-7.0483 -16.875,-13.79111 -13.23657,-6.79178 -16.875,-11.05505 -16.875,-19.77302 0,-6.51278 2.95807,-11.1586 9.14044,-14.35563 5.10158,-2.63813 15.41604,-2.72658 20.50059,-0.1758 3.80345,1.90807 4.05604,1.88869 4.77174,-0.36629 0.41563,-1.30956 1.8428,-2.38101 3.17147,-2.38101 2.20874,0 2.41576,0.96409 2.41576,11.25 0,10.26539 -0.21031,11.25 -2.40306,11.25 -1.63367,0 -2.86102,-1.38764 -3.83344,-4.33409 -1.90003,-5.75716 -7.86287,-10.66591 -12.95627,-10.66591 -8.90794,0 -12.70459,7.60547 -6.11973,12.2591 1.89063,1.33612 7.9375,4.69208 13.4375,7.45765 13.0495,6.56172 15.89448,9.66698 16.5702,18.08611 0.66383,8.2709 -2.80781,14.0427 -10.90765,18.1346 -6.83545,3.4532 -13.91563,3.5503 -21.10161,0.2895 -5.63587,-2.5574 -7.68594,-2.3648 -7.68594,0.7218 0,0.9907 -1.125,1.8012 -2.5,1.8012 -2.34127,0 -2.5,-0.8333 -2.5,-13.125 z"
         style="fill:#464646;fill-opacity:1"
         id="path4179"
         inkscape:connector-curvature="0" />
      <path
         d="m 313.34094,325.33734 c -11.51963,-34.19434 -20.9415,-62.805 -20.9375,-63.57924 0.004,-0.80411 2.98241,-1.65443 6.94575,-1.98311 8.151,-0.67594 11.97531,-3.39953 9.2999,-6.6232 -1.46972,-1.7709 -4.13973,-1.90796 -22.08013,-1.13348 -11.22452,0.48456 -20.40824,0.47982 -20.40824,-0.0105 0,-2.14879 8.02079,-12.05405 16.45972,-20.3269 21.60327,-21.17815 50.43118,-32.8712 81.04028,-32.8712 13.84953,0 24.20212,1.74684 38.56614,6.50742 11.64244,3.85859 29.81916,14.09149 36.7774,20.70447 l 3.46854,3.29643 -5.5003,1.60382 c -6.99525,2.03971 -12.69598,7.85207 -14.42121,14.70359 -1.79759,7.13889 0.40251,14.32972 8.61743,28.16539 14.64038,24.65746 14.73144,34.43033 0.75005,80.48925 -5.19468,17.11283 -9.7271,31.39646 -10.07203,31.7414 -0.34494,0.34495 -0.911,-0.15646 -1.25793,-1.11424 -1.91299,-5.28145 -41.92809,-124.00116 -41.92809,-124.3953 0,-0.25911 2.39063,-0.52718 5.3125,-0.59571 8.639,-0.20262 11.5625,-1.44729 11.5625,-4.92269 l 0,-3.05959 -34.02848,-0.0617 c -26.70588,-0.0484 -34.16185,0.28587 -34.64827,1.55344 -1.27131,3.31297 0.86375,5.25704 6.59997,6.00959 3.20473,0.42043 6.61768,0.8693 7.58433,0.99748 1.07417,0.14244 5.33279,9.92796 10.95237,25.16644 l 9.1948,24.93339 -12.81225,38.50411 c -7.04673,21.17727 -13.10029,38.49693 -13.45235,38.48815 -0.35207,-0.009 -10.06527,-27.99316 -21.5849,-62.1875 z m 107.81978,90.62883 c 0,-0.17855 8.52512,-24.78792 18.9447,-54.6875 23.40642,-67.16599 24.97889,-72.80835 25.05769,-89.91198 0.0525,-11.39694 0.27808,-12.75104 1.78156,-10.69489 2.9394,4.01986 8.90045,20.78283 10.98077,30.87881 2.27207,11.02664 2.60982,33.255 0.67156,44.19813 -4.30665,24.31461 -17.37531,48.45811 -35.12506,64.89125 -9.52877,8.82194 -22.31122,17.60257 -22.31122,15.32618 z m -120,-1.94096 c -27.68287,-17.76211 -46.76268,-46.24431 -52.43627,-78.27647 -2.06235,-11.64368 -1.5699,-32.43251 1.07144,-45.23093 2.2588,-10.94486 6.9933,-24.01521 8.24548,-22.76302 0.53492,0.53491 55.61935,150.98344 55.61935,151.9095 0,1.52373 -4.50142,-0.50697 -12.5,-5.63908 z m 46.92084,17.08385 c -12.93206,-1.65734 -18.50799,-3.38668 -17.70092,-5.48982 0.37333,-0.97294 8.07337,-23.29798 17.11117,-49.6112 9.03779,-26.31323 16.89603,-48.68598 17.46274,-49.71723 0.80526,-1.46535 1.34399,-1.0557 2.4658,1.875 5.57212,14.55706 34.99037,95.88906 34.99037,96.73713 0,2.58601 -28.60241,7.85645 -40.59221,7.47974 -2.76802,-0.087 -8.94966,-0.66009 -13.73695,-1.27362 z m 37.44416,10.77354 c 65.15673,-11.36238 113.01738,-74.14006 105.75147,-138.7117 -3.64402,-32.38405 -15.33668,-56.30328 -38.80414,-79.38009 -24.57603,-24.16694 -54.49145,-36.44202 -88.81233,-36.44202 -23.70815,0 -45.84765,6.14465 -66.48307,18.45187 -12.84373,7.66015 -32.3419,26.50602 -40.39129,39.04002 -30.24642,47.0978 -28.27999,103.63876 5.15148,148.12031 28.4602,37.86715 76.93773,57.05672 123.58788,48.92161 z m -46.04591,7.49314 c -27.6592,-5.22554 -51.75891,-17.86645 -71.45866,-37.48187 -52.50256,-52.27783 -53.67668,-136.56011 -2.65085,-190.28882 19.49754,-20.53035 44.78757,-34.44511 71.97865,-39.60317 13.45209,-2.55181 39.17146,-2.55181 52.62355,0 49.38946,9.36903 90.18699,46.86527 104.19855,95.76693 18.54889,64.73738 -12.42298,132.47814 -73.69943,161.19325 -17.0126,7.97238 -31.72013,11.24198 -53.0609,11.79585 -12.57365,0.32634 -21.12837,-0.097 -27.93091,-1.38217 z"
         style="fill:#464646;fill-opacity:1"
         id="path4165"
         inkscape:connector-curvature="0" />
    </g>
  </g>
</svg>
