<?xml version="1.0" encoding="UTF-8"?>
<svg width="996px" height="512px" viewBox="0 0 996 512" version="1.1" xmlns="http://www.w3.org/2000/svg" xmlns:xlink="http://www.w3.org/1999/xlink">
    <!-- Generator: Sketch 54.1 (76490) - https://sketchapp.com -->
    <title>FINAL LOGO- White - Landscape - 1024px</title>
    <desc>Created with Sketch.</desc>
    <g id="FINAL-LOGO--White---Landscape---1024px" stroke="none" stroke-width="1" fill="none" fill-rule="evenodd">
        <g id="Group-6-Copy-2" transform="translate(203.000000, 139.000000)">
            <g id="Group-6-Copy"></g>
        </g>
        <rect id="Rectangle" fill="#FFFFFF" x="0" y="0" width="996" height="512"></rect>
        <g id="Group"></g>
        <g id="Group-3" transform="translate(408.000000, 153.000000)" fill="#202020" fill-rule="nonzero">
            <path d="M30.6202022,27.8802529 L30.6202022,77.8396542 L84.441289,77.8396542 C83.4804009,85.2897279 81.0553023,91.2246421 77.1659933,95.6443969 C73.2766843,100.064152 68.0267354,102.729447 61.4161467,103.640284 L30.6202022,103.640284 L30.6202022,166.5 L0,166.5 L0,2.31417435 L130,1.5 C129.769362,9.38913214 127.585103,15.3391512 123.447225,19.3500571 C117.240407,25.3664161 109.955836,27.8802529 105.604015,27.8802529 C102.702801,27.8802529 77.7081963,27.8802529 30.6202022,27.8802529 Z" id="F"></path>
            <path d="M148,1.03272329 C156.797363,-0.338222472 164.151274,0.936894433 170.061732,4.85807401 C175.97219,8.77925358 178.927419,14.9753541 178.927419,23.4463755 L178.927419,141.340857 C217.275949,141.340857 238.276045,141.340857 241.927707,141.340857 C247.405199,141.340857 255.628274,143.848033 260.077346,149.599606 C263.043394,153.433988 265.017612,159.400786 266,167.5 L148,167.5 L148,1.03272329 Z" id="L"></path>
            <path d="M345.837997,108.537129 L345.837997,166.5 L315.396171,166.5 L315.396171,109.006464 L251,2.23275528 C260.796688,1.25574824 267.898972,1.25574824 272.306851,2.23275528 C278.91867,3.69826585 282.480327,6.51578447 285.152558,9.80267439 C286.934046,11.9939343 302.401112,36.1444996 331.553756,82.2543702 C358.841192,36.5689248 373.425068,12.4183595 375.305383,9.80267439 C378.125855,5.87914668 383.182332,3.68630542 389.078208,2.23275528 C393.008792,1.26372185 399.982723,1.26372185 410,2.23275528 L345.837997,108.537129 Z" id="Y"></path>
        </g>
        <g id="Group-4" transform="translate(147.000000, 156.500000)">
            <g id="Group-2" transform="translate(0.000000, 1.000000)" fill="#00DB7B">
                <path d="M105.5,104 L182.5,104 C192.441125,104 200.5,112.058875 200.5,122 L200.5,141 L112,141 C108.410149,141 105.5,138.089851 105.5,134.5 L105.5,104 Z" id="Rectangle"></path>
                <path d="M94,134.5 L171,134.5 L171,170.5 L76,170.5 L76,152.5 C76,142.558875 84.0588745,134.5 94,134.5 Z" id="Rectangle-Copy-6" transform="translate(123.500000, 152.500000) rotate(-90.000000) translate(-123.500000, -152.500000) "></path>
                <path d="M0,59 L77,59 C86.9411255,59 95,67.0588745 95,77 L95,96 L6.5,96 C2.91014913,96 4.39629938e-16,93.0898509 0,89.5 L0,59 Z" id="Rectangle-Copy-12" transform="translate(47.500000, 77.500000) rotate(-180.000000) translate(-47.500000, -77.500000) "></path>
                <path d="M47.5,29.5 L124.5,29.5 L124.5,65.5 L29.5,65.5 L29.5,47.5 C29.5,37.5588745 37.5588745,29.5 47.5,29.5 Z" id="Rectangle-Copy-7" transform="translate(77.000000, 47.500000) rotate(-270.000000) translate(-77.000000, -47.500000) "></path>
            </g>
            <rect id="Rectangle-Copy-10" fill="#202020" transform="translate(124.500000, 23.500000) rotate(-270.000000) translate(-124.500000, -23.500000) " x="101" y="5" width="47" height="37"></rect>
            <rect id="Rectangle-Copy-8" fill="#202020" x="106" y="58" width="95" height="38"></rect>
            <rect id="Rectangle-Copy-11" fill="#202020" transform="translate(77.500000, 177.500000) rotate(-90.000000) translate(-77.500000, -177.500000) " x="54" y="160" width="47" height="35"></rect>
            <rect id="Rectangle-Copy-9" fill="#202020" transform="translate(48.000000, 124.000000) rotate(-180.000000) translate(-48.000000, -124.000000) " x="1" y="105" width="94" height="38"></rect>
        </g>
        <text id="Travel-Solved-Copy" font-family="Inter" font-size="28" font-weight="400" letter-spacing="8.081379" fill="#424242">
            <tspan x="408" y="357.5">TRAVEL  SOLVED</tspan>
        </text>
    </g>
</svg>