<?xml version="1.0" encoding="UTF-8"?>
<svg width="170px" height="70px" viewBox="-10 -15 170 70" version="1.1" xmlns="http://www.w3.org/2000/svg" xmlns:xlink="http://www.w3.org/1999/xlink">
<style type="text/css">
	.st0{fill:#000;}
</style>
<path d="M19.6767,6.9585v19.6767c0,2.8799-1.4394,5.6387-5.8789,5.6387H5.8393v-4.3984h6.6787
	c0.9199,0,1.9595-0.2403,1.9595-1.6397v-3.5205c-0.8799,1.4805-3.0791,2.7608-5.6787,2.7608C3.8393,25.4761,0,21.7153,0,15.9976
	C0,10.2388,3.7993,6.479,8.7587,6.479c2.7593,0,4.8789,1.2798,5.7989,2.8394c0-0.2002-0.0801-0.5601-0.0801-1.5201V6.9585H19.6767z
	 M9.9584,20.9966c2.7598,0,4.6392-2.041,4.6392-4.999c0-3-1.8794-5.0396-4.6392-5.0396c-2.7197,0-4.5991,2.0396-4.5991,5.0396
	C5.3593,18.9556,7.2387,20.9966,9.9584,20.9966z M40.5165,17.6372H26.8789c0.2797,2.0391,1.8794,3.6797,4.1992,3.6797
	c1.5195,0,2.9594-0.6406,3.6792-1.8799l5.3989,0.5596c-1.6396,3.9199-5.0791,5.7588-9.1582,5.7588
	c-5.479,0-9.5986-4.0401-9.5986-9.6377c0-5.6001,4.0395-9.6387,9.5185-9.6387c5.0391,0,9.5986,3.2788,9.5986,10.958V17.6372z
	 M26.7587,14.1572h8.1988c-0.2803-1.8393-1.8399-3.3589-4.0396-3.3589S27.1586,12.1973,26.7587,14.1572z M49.3579,0v6.9585h3.9595
	v4.3994h-3.9595v8.2793c0,1.1592,0.9199,1.3193,1.7197,1.3193c1.3198,0,2.3999-0.1201,2.3999-0.1201v4.4395
	c0,0-2.5195,0.2402-4.0395,0.2402c-2.5996,0-5.2788-0.4414-5.2788-4.1191V11.3579h-2.8799V6.9585h2.8799V0H49.3579z
	 M67.0771,13.0771c0-1.3188-1.04-2.1586-3.0395-2.1586c-1.8399,0-4.1592,0.9199-5.5191,1.7197L56.479,8.7183
	c0,0,3.3994-2.2393,7.8383-2.2393c4.1597,0,7.959,1.9199,7.959,6.7583v12.0386h-5.1992v-1.7198
	c-0.96,1.4395-3.0395,2.1993-5.1191,2.1993c-3.8794,0-6.399-2.7588-6.399-5.7588c0-3.48,2.5596-5.6387,6.6387-5.6387h3.5996
	c0.8799,0,1.2798-0.4004,1.2798-1.0801V13.0771z M67.0771,18.7173v-1.3208c-0.3198,0.3208-0.8799,0.4009-1.5996,0.4009h-1.96
	c-1.6396,0-2.5996,0.7197-2.5996,1.999c0,1.2402,1,2.1601,2.5996,2.1601C65.3974,21.9565,67.0771,20.9966,67.0771,18.7173z
	 M86.1967,12.0776h-2.1992c-2.6396,0-3.8393,1.2403-3.8393,4.439v8.7593h-5.1993V6.9585h5.0391v2.9199
	c0.7192-1.9599,2.479-3.1597,4.7593-3.1597c0.4795,0,0.9599,0.0406,1.4394,0.1607V12.0776z M86.9584,16.1177
	c0-5.6001,4.3594-9.6387,9.7979-9.6387c5.4395,0,9.7988,4.0386,9.7988,9.6387c0,5.5976-4.3593,9.6377-9.7988,9.6377
	C91.3178,25.7554,86.9584,21.7153,86.9584,16.1177z M92.1577,16.1177c0,2.8379,1.8799,4.999,4.5986,4.999
	c2.6797,0,4.5605-2.1611,4.5605-4.999c0-2.8804-1.8808-4.9995-4.5605-4.9995C94.0376,11.1182,92.1577,13.2373,92.1577,16.1177z
	 M107.9184,16.1177c0-5.6001,4.3594-9.6387,9.7988-9.6387c5.4385,0,9.7969,4.0386,9.7969,9.6387
	c0,5.5976-4.3584,9.6377-9.7969,9.6377C112.2778,25.7554,107.9184,21.7153,107.9184,16.1177z M113.1176,16.1177
	c0,2.8379,1.8789,4.999,4.5996,4.999c2.6787,0,4.5586-2.1611,4.5586-4.999c0-2.8804-1.8799-4.9995-4.5586-4.9995
	C114.9965,11.1182,113.1176,13.2373,113.1176,16.1177z M153.3129,14.5181c0-2.2408-1.4394-3.2007-3.039-3.2007
	c-1.4805,0-2.7988,0.8403-3.7988,2.0805v11.878h-5.1993V14.5181c0-2.2002-1.4004-3.2007-3.039-3.2007
	c-1.4805,0-2.8008,0.8403-3.8008,2.0805v11.878h-5.1992V6.9585h5.08v0.7207c0,0.6392-0.08,1.439-0.08,1.439
	c1.3593-1.6792,3.4004-2.6392,5.4785-2.6392c2.7207,0,4.8398,1.1602,5.8789,3.3193c1.5195-2.1191,3.5996-3.3193,6.1601-3.3193
	c3.959,0,6.7579,2.5195,6.7579,6.7988v11.9981h-5.1993V14.5181z"/>
</svg>
